<svg width="88" height="18" viewBox="0 0 88 18" fill="none" xmlns="http://www.w3.org/2000/svg">
<g id="txt">
<path id="Vector" d="M77.9539 12.408C78.3699 13.912 79.4979 14.664 81.3379 14.664C82.5219 14.664 83.4179 14.264 84.0259 13.464L86.5219 14.904C85.3379 16.616 83.5939 17.472 81.2899 17.472C79.3059 17.472 77.7139 16.872 76.5139 15.672C75.3139 14.472 74.7139 12.96 74.7139 11.136C74.7139 9.328 75.3059 7.824 76.4899 6.624C77.6739 5.408 79.1939 4.8 81.0499 4.8C82.8099 4.8 84.2579 5.408 85.3939 6.624C86.5459 7.84 87.1219 9.344 87.1219 11.136C87.1219 11.536 87.0819 11.96 87.0019 12.408H77.9539ZM77.9059 10.008H84.0259C83.8499 9.192 83.4819 8.584 82.9219 8.184C82.3779 7.784 81.7539 7.584 81.0499 7.584C80.2179 7.584 79.5299 7.8 78.9859 8.232C78.4419 8.648 78.0819 9.24 77.9059 10.008Z" fill="#F25822"/>
<path id="Vector_2" d="M70.9152 8.424C72.3872 9.272 73.1232 10.552 73.1232 12.264C73.1232 13.688 72.6192 14.856 71.6112 15.768C70.6032 16.68 69.3632 17.136 67.8912 17.136H60.7632V0.335999H67.3872C68.8272 0.335999 70.0352 0.783998 71.0112 1.68C72.0032 2.56 72.4992 3.688 72.4992 5.064C72.4992 6.456 71.9712 7.576 70.9152 8.424ZM67.3872 3.432H64.0752V7.128H67.3872C67.8992 7.128 68.3232 6.952 68.6592 6.6C69.0112 6.248 69.1872 5.808 69.1872 5.28C69.1872 4.752 69.0192 4.312 68.6832 3.96C68.3472 3.608 67.9152 3.432 67.3872 3.432ZM67.8912 14.04C68.4512 14.04 68.9152 13.856 69.2832 13.488C69.6512 13.104 69.8352 12.624 69.8352 12.048C69.8352 11.488 69.6512 11.024 69.2832 10.656C68.9152 10.272 68.4512 10.08 67.8912 10.08H64.0752V14.04H67.8912Z" fill="#F25822"/>
<path id="Vector_3" d="M55.6623 5.136H58.9503L55.1343 17.136H52.1823L49.9743 9.864L47.7663 17.136H44.8143L40.9983 5.136H44.2863L46.3263 12.504L48.5103 5.136H51.4383L53.6223 12.528L55.6623 5.136Z" fill="black"/>
<path id="Vector_4" d="M38.5931 15.648C37.3611 16.864 35.8571 17.472 34.0811 17.472C32.3051 17.472 30.8011 16.864 29.5691 15.648C28.3531 14.416 27.7451 12.912 27.7451 11.136C27.7451 9.36 28.3531 7.864 29.5691 6.648C30.8011 5.416 32.3051 4.8 34.0811 4.8C35.8571 4.8 37.3611 5.416 38.5931 6.648C39.8251 7.864 40.4411 9.36 40.4411 11.136C40.4411 12.912 39.8251 14.416 38.5931 15.648ZM31.7531 13.512C32.3771 14.136 33.1531 14.448 34.0811 14.448C35.0091 14.448 35.7851 14.136 36.4091 13.512C37.0331 12.888 37.3451 12.096 37.3451 11.136C37.3451 10.176 37.0331 9.384 36.4091 8.76C35.7851 8.136 35.0091 7.824 34.0811 7.824C33.1531 7.824 32.3771 8.136 31.7531 8.76C31.1451 9.384 30.8411 10.176 30.8411 11.136C30.8411 12.096 31.1451 12.888 31.7531 13.512Z" fill="black"/>
<path id="Vector_5" d="M23.3558 7.2C23.6438 6.432 24.1158 5.856 24.7718 5.472C25.4438 5.088 26.1878 4.896 27.0038 4.896V8.352C26.0598 8.24 25.2118 8.432 24.4598 8.928C23.7238 9.424 23.3558 10.248 23.3558 11.4V17.136H20.2598V5.136H23.3558V7.2Z" fill="black"/>
<path id="Vector_6" d="M18.048 8.112V9.408C18.048 11.808 17.28 13.752 15.744 15.24C14.208 16.728 12.224 17.472 9.79199 17.472C7.19999 17.472 5.04799 16.632 3.33599 14.952C1.63999 13.256 0.791992 11.192 0.791992 8.76C0.791992 6.312 1.63199 4.24 3.31199 2.544C5.00799 0.848 7.10399 0 9.59999 0C11.168 0 12.6 0.36 13.896 1.08C15.192 1.784 16.2 2.728 16.92 3.912L14.088 5.544C13.688 4.856 13.08 4.296 12.264 3.864C11.464 3.432 10.568 3.216 9.57599 3.216C7.97599 3.216 6.65599 3.744 5.61599 4.8C4.59199 5.84 4.07999 7.16 4.07999 8.76C4.07999 10.344 4.59999 11.656 5.63999 12.696C6.69599 13.72 8.08799 14.232 9.81599 14.232C11.096 14.232 12.152 13.952 12.984 13.392C13.832 12.816 14.408 12.032 14.712 11.04H9.62399V8.112H18.048Z" fill="black"/>
</g>
</svg>
